STARTFONT 2.1
COMMENT Available in 6, 10, 12, 14, 18 and 24 point.
COMMENT @@@@@@@@@@@@@@@@@@@@@@@@
COMMENT @......................@
COMMENT @......................@
COMMENT @......................@
COMMENT @.@@@@@@@..............@
COMMENT @..@@...@...........@..@
COMMENT @..@@..............@@..@
COMMENT @..@@..............@@..@
COMMENT @..@@@@...........@@@@.@
COMMENT @..@@...@@@..@@@@..@@..@
COMMENT @..@@..@@.@@.@@.@@.@@..@
COMMENT @..@@..@@.@@.@@.@@.@@..@
COMMENT @..@@..@@.@@.@@.@@.@@..@
COMMENT @.@@@@..@@@..@@.@@..@@.@
COMMENT @......................@
COMMENT @......................@
COMMENT @......................@
COMMENT @......................@
COMMENT @......................@
COMMENT @......................@
COMMENT @@@@@@@@@@@@@@@@@@@@@@@@
FONT --University-Regular-R-Normal--10-100-72-72-P-52-FONTSPECIFIC-0
SIZE 10 72 72
FONTBOUNDINGBOX 9 10 0 -2
METRICSSET 2
STARTPROPERTIES 19
FONT_ASCENT 8
FONT_DESCENT 2
PIXEL_SIZE 10
RESOLUTION_X 72
RESOLUTION_Y 72
POINT_SIZE 100
FACE_NAME "University Regular 10"
FOUNDRY ""
FAMILY_NAME "University"
WEIGHT_NAME "Regular"
RELATIVE_WEIGHT 50
SLANT "R"
SPACING "P"
SETWIDTH_NAME "Normal"
RELATIVE_SETWIDTH 50
ADD_STYLE_NAME ""
AVERAGE_WIDTH 52
CHARSET_REGISTRY "FONTSPECIFIC"
CHARSET_ENCODING "0"
ENDPROPERTIES
CHARS 95
STARTCHAR char20
ENCODING 32
SWIDTH 400 0
DWIDTH 4 0
BBX 0 0 4 8
VVECTOR 6 8
SWIDTH1 0 -1000
DWIDTH1 0 -10
BITMAP 
ENDCHAR
STARTCHAR char21
ENCODING 33
SWIDTH 200 0
DWIDTH 2 0
BBX 1 8 0 0
VVECTOR 0 8
SWIDTH1 0 -1000
DWIDTH1 0 -10
BITMAP 
80
80
80
80
80
80
00
80
ENDCHAR
STARTCHAR char22
ENCODING 34
SWIDTH 400 0
DWIDTH 4 0
BBX 3 2 0 6
VVECTOR 1 8
SWIDTH1 0 -1000
DWIDTH1 0 -10
BITMAP 
A0
A0
ENDCHAR
STARTCHAR char23
ENCODING 35
SWIDTH 800 0
DWIDTH 8 0
BBX 7 5 0 3
VVECTOR 3 8
SWIDTH1 0 -1000
DWIDTH1 0 -10
BITMAP 
14
7E
28
FC
50
ENDCHAR
STARTCHAR char24
ENCODING 36
SWIDTH 600 0
DWIDTH 6 0
BBX 5 10 0 -2
VVECTOR 2 8
SWIDTH1 0 -1000
DWIDTH1 0 -10
BITMAP 
20
70
A8
A0
60
30
28
A8
70
20
ENDCHAR
STARTCHAR char25
ENCODING 37
SWIDTH 900 0
DWIDTH 9 0
BBX 8 8 0 0
VVECTOR 4 8
SWIDTH1 0 -1000
DWIDTH1 0 -10
BITMAP 
7F
92
94
68
16
29
49
46
ENDCHAR
STARTCHAR char26
ENCODING 38
SWIDTH 800 0
DWIDTH 8 0
BBX 7 8 0 0
VVECTOR 3 8
SWIDTH1 0 -1000
DWIDTH1 0 -10
BITMAP 
30
48
50
20
54
88
94
62
ENDCHAR
STARTCHAR char27
ENCODING 39
SWIDTH 200 0
DWIDTH 2 0
BBX 1 2 0 6
VVECTOR 0 8
SWIDTH1 0 -1000
DWIDTH1 0 -10
BITMAP 
80
80
ENDCHAR
STARTCHAR char28
ENCODING 40
SWIDTH 400 0
DWIDTH 4 0
BBX 3 10 0 -2
VVECTOR 1 8
SWIDTH1 0 -1000
DWIDTH1 0 -10
BITMAP 
20
40
40
80
80
80
80
40
40
20
ENDCHAR
STARTCHAR char29
ENCODING 41
SWIDTH 400 0
DWIDTH 4 0
BBX 3 10 0 -2
VVECTOR 1 8
SWIDTH1 0 -1000
DWIDTH1 0 -10
BITMAP 
80
40
40
20
20
20
20
40
40
80
ENDCHAR
STARTCHAR char2A
ENCODING 42
SWIDTH 600 0
DWIDTH 6 0
BBX 5 5 0 3
VVECTOR 2 8
SWIDTH1 0 -1000
DWIDTH1 0 -10
BITMAP 
50
20
F8
20
50
ENDCHAR
STARTCHAR char2B
ENCODING 43
SWIDTH 600 0
DWIDTH 6 0
BBX 5 5 0 1
VVECTOR 2 8
SWIDTH1 0 -1000
DWIDTH1 0 -10
BITMAP 
20
20
F8
20
20
ENDCHAR
STARTCHAR char2C
ENCODING 44
SWIDTH 300 0
DWIDTH 3 0
BBX 2 3 0 -2
VVECTOR 1 8
SWIDTH1 0 -1000
DWIDTH1 0 -10
BITMAP 
40
40
80
ENDCHAR
STARTCHAR char2D
ENCODING 45
SWIDTH 500 0
DWIDTH 5 0
BBX 4 1 0 3
VVECTOR 2 8
SWIDTH1 0 -1000
DWIDTH1 0 -10
BITMAP 
F0
ENDCHAR
STARTCHAR char2E
ENCODING 46
SWIDTH 200 0
DWIDTH 2 0
BBX 1 1 0 0
VVECTOR 0 8
SWIDTH1 0 -1000
DWIDTH1 0 -10
BITMAP 
80
ENDCHAR
STARTCHAR char2F
ENCODING 47
SWIDTH 500 0
DWIDTH 5 0
BBX 4 8 0 0
VVECTOR 2 8
SWIDTH1 0 -1000
DWIDTH1 0 -10
BITMAP 
10
10
20
20
40
40
80
80
ENDCHAR
STARTCHAR char30
ENCODING 48
SWIDTH 600 0
DWIDTH 6 0
BBX 5 8 0 0
VVECTOR 2 8
SWIDTH1 0 -1000
DWIDTH1 0 -10
BITMAP 
70
88
88
88
88
88
88
70
ENDCHAR
STARTCHAR char31
ENCODING 49
SWIDTH 300 0
DWIDTH 3 0
BBX 2 8 0 0
VVECTOR 1 8
SWIDTH1 0 -1000
DWIDTH1 0 -10
BITMAP 
40
C0
40
40
40
40
40
40
ENDCHAR
STARTCHAR char32
ENCODING 50
SWIDTH 600 0
DWIDTH 6 0
BBX 5 8 0 0
VVECTOR 2 8
SWIDTH1 0 -1000
DWIDTH1 0 -10
BITMAP 
70
88
08
10
20
40
80
F8
ENDCHAR
STARTCHAR char33
ENCODING 51
SWIDTH 600 0
DWIDTH 6 0
BBX 5 8 0 0
VVECTOR 2 8
SWIDTH1 0 -1000
DWIDTH1 0 -10
BITMAP 
F8
10
20
70
08
08
88
70
ENDCHAR
STARTCHAR char34
ENCODING 52
SWIDTH 700 0
DWIDTH 7 0
BBX 6 8 0 0
VVECTOR 3 8
SWIDTH1 0 -1000
DWIDTH1 0 -10
BITMAP 
08
18
28
48
88
FC
08
08
ENDCHAR
STARTCHAR char35
ENCODING 53
SWIDTH 600 0
DWIDTH 6 0
BBX 5 8 0 0
VVECTOR 2 8
SWIDTH1 0 -1000
DWIDTH1 0 -10
BITMAP 
F8
80
80
F0
08
08
88
70
ENDCHAR
STARTCHAR char36
ENCODING 54
SWIDTH 600 0
DWIDTH 6 0
BBX 5 8 0 0
VVECTOR 2 8
SWIDTH1 0 -1000
DWIDTH1 0 -10
BITMAP 
30
40
80
F0
88
88
88
70
ENDCHAR
STARTCHAR char37
ENCODING 55
SWIDTH 600 0
DWIDTH 6 0
BBX 5 8 0 0
VVECTOR 2 8
SWIDTH1 0 -1000
DWIDTH1 0 -10
BITMAP 
F8
08
08
10
10
20
20
20
ENDCHAR
STARTCHAR char38
ENCODING 56
SWIDTH 600 0
DWIDTH 6 0
BBX 5 8 0 0
VVECTOR 2 8
SWIDTH1 0 -1000
DWIDTH1 0 -10
BITMAP 
70
88
88
70
88
88
88
70
ENDCHAR
STARTCHAR char39
ENCODING 57
SWIDTH 600 0
DWIDTH 6 0
BBX 5 8 0 0
VVECTOR 2 8
SWIDTH1 0 -1000
DWIDTH1 0 -10
BITMAP 
70
88
88
88
78
08
10
60
ENDCHAR
STARTCHAR char3A
ENCODING 58
SWIDTH 200 0
DWIDTH 2 0
BBX 1 5 0 0
VVECTOR 0 8
SWIDTH1 0 -1000
DWIDTH1 0 -10
BITMAP 
80
00
00
00
80
ENDCHAR
STARTCHAR char3B
ENCODING 59
SWIDTH 300 0
DWIDTH 3 0
BBX 2 7 0 -2
VVECTOR 1 8
SWIDTH1 0 -1000
DWIDTH1 0 -10
BITMAP 
40
00
00
00
40
40
80
ENDCHAR
STARTCHAR char3C
ENCODING 60
SWIDTH 400 0
DWIDTH 4 0
BBX 3 5 0 1
VVECTOR 1 8
SWIDTH1 0 -1000
DWIDTH1 0 -10
BITMAP 
20
40
80
40
20
ENDCHAR
STARTCHAR char3D
ENCODING 61
SWIDTH 600 0
DWIDTH 6 0
BBX 5 3 0 2
VVECTOR 2 8
SWIDTH1 0 -1000
DWIDTH1 0 -10
BITMAP 
F8
00
F8
ENDCHAR
STARTCHAR char3E
ENCODING 62
SWIDTH 400 0
DWIDTH 4 0
BBX 3 5 0 1
VVECTOR 1 8
SWIDTH1 0 -1000
DWIDTH1 0 -10
BITMAP 
80
40
20
40
80
ENDCHAR
STARTCHAR char3F
ENCODING 63
SWIDTH 600 0
DWIDTH 6 0
BBX 5 8 0 0
VVECTOR 2 8
SWIDTH1 0 -1000
DWIDTH1 0 -10
BITMAP 
70
88
08
10
20
20
00
20
ENDCHAR
STARTCHAR char40
ENCODING 64
SWIDTH 800 0
DWIDTH 8 0
BBX 7 7 0 0
VVECTOR 3 8
SWIDTH1 0 -1000
DWIDTH1 0 -10
BITMAP 
38
44
BA
AA
BC
40
30
ENDCHAR
STARTCHAR char41
ENCODING 65
SWIDTH 600 0
DWIDTH 6 0
BBX 5 8 0 0
VVECTOR 2 8
SWIDTH1 0 -1000
DWIDTH1 0 -10
BITMAP 
20
20
50
50
88
F8
88
88
ENDCHAR
STARTCHAR char42
ENCODING 66
SWIDTH 600 0
DWIDTH 6 0
BBX 5 8 0 0
VVECTOR 2 8
SWIDTH1 0 -1000
DWIDTH1 0 -10
BITMAP 
F0
88
88
F0
88
88
88
F0
ENDCHAR
STARTCHAR char43
ENCODING 67
SWIDTH 600 0
DWIDTH 6 0
BBX 5 8 0 0
VVECTOR 2 8
SWIDTH1 0 -1000
DWIDTH1 0 -10
BITMAP 
70
88
80
80
80
80
88
70
ENDCHAR
STARTCHAR char44
ENCODING 68
SWIDTH 600 0
DWIDTH 6 0
BBX 5 8 0 0
VVECTOR 2 8
SWIDTH1 0 -1000
DWIDTH1 0 -10
BITMAP 
E0
90
88
88
88
88
90
E0
ENDCHAR
STARTCHAR char45
ENCODING 69
SWIDTH 500 0
DWIDTH 5 0
BBX 4 8 0 0
VVECTOR 2 8
SWIDTH1 0 -1000
DWIDTH1 0 -10
BITMAP 
F0
80
80
E0
80
80
80
F0
ENDCHAR
STARTCHAR char46
ENCODING 70
SWIDTH 500 0
DWIDTH 5 0
BBX 4 8 0 0
VVECTOR 2 8
SWIDTH1 0 -1000
DWIDTH1 0 -10
BITMAP 
F0
80
80
E0
80
80
80
80
ENDCHAR
STARTCHAR char47
ENCODING 71
SWIDTH 600 0
DWIDTH 6 0
BBX 5 8 0 0
VVECTOR 2 8
SWIDTH1 0 -1000
DWIDTH1 0 -10
BITMAP 
70
88
80
80
98
88
88
70
ENDCHAR
STARTCHAR char48
ENCODING 72
SWIDTH 600 0
DWIDTH 6 0
BBX 5 8 0 0
VVECTOR 2 8
SWIDTH1 0 -1000
DWIDTH1 0 -10
BITMAP 
88
88
88
F8
88
88
88
88
ENDCHAR
STARTCHAR char49
ENCODING 73
SWIDTH 200 0
DWIDTH 2 0
BBX 1 8 0 0
VVECTOR 0 8
SWIDTH1 0 -1000
DWIDTH1 0 -10
BITMAP 
80
80
80
80
80
80
80
80
ENDCHAR
STARTCHAR char4A
ENCODING 74
SWIDTH 600 0
DWIDTH 6 0
BBX 5 8 0 0
VVECTOR 2 8
SWIDTH1 0 -1000
DWIDTH1 0 -10
BITMAP 
08
08
08
08
08
88
88
70
ENDCHAR
STARTCHAR char4B
ENCODING 75
SWIDTH 600 0
DWIDTH 6 0
BBX 5 8 0 0
VVECTOR 2 8
SWIDTH1 0 -1000
DWIDTH1 0 -10
BITMAP 
88
90
A0
C0
C0
A0
90
88
ENDCHAR
STARTCHAR char4C
ENCODING 76
SWIDTH 500 0
DWIDTH 5 0
BBX 4 8 0 0
VVECTOR 2 8
SWIDTH1 0 -1000
DWIDTH1 0 -10
BITMAP 
80
80
80
80
80
80
80
F0
ENDCHAR
STARTCHAR char4D
ENCODING 77
SWIDTH 800 0
DWIDTH 8 0
BBX 7 8 0 0
VVECTOR 3 8
SWIDTH1 0 -1000
DWIDTH1 0 -10
BITMAP 
82
C6
AA
92
82
82
82
82
ENDCHAR
STARTCHAR char4E
ENCODING 78
SWIDTH 600 0
DWIDTH 6 0
BBX 5 8 0 0
VVECTOR 2 8
SWIDTH1 0 -1000
DWIDTH1 0 -10
BITMAP 
88
C8
C8
A8
A8
98
98
88
ENDCHAR
STARTCHAR char4F
ENCODING 79
SWIDTH 600 0
DWIDTH 6 0
BBX 5 8 0 0
VVECTOR 2 8
SWIDTH1 0 -1000
DWIDTH1 0 -10
BITMAP 
70
88
88
88
88
88
88
70
ENDCHAR
STARTCHAR char50
ENCODING 80
SWIDTH 600 0
DWIDTH 6 0
BBX 5 8 0 0
VVECTOR 2 8
SWIDTH1 0 -1000
DWIDTH1 0 -10
BITMAP 
F0
88
88
88
F0
80
80
80
ENDCHAR
STARTCHAR char51
ENCODING 81
SWIDTH 600 0
DWIDTH 6 0
BBX 5 9 0 -1
VVECTOR 2 8
SWIDTH1 0 -1000
DWIDTH1 0 -10
BITMAP 
70
88
88
88
88
88
A8
70
08
ENDCHAR
STARTCHAR char52
ENCODING 82
SWIDTH 600 0
DWIDTH 6 0
BBX 5 8 0 0
VVECTOR 2 8
SWIDTH1 0 -1000
DWIDTH1 0 -10
BITMAP 
F0
88
88
88
F0
A0
90
88
ENDCHAR
STARTCHAR char53
ENCODING 83
SWIDTH 600 0
DWIDTH 6 0
BBX 5 8 0 0
VVECTOR 2 8
SWIDTH1 0 -1000
DWIDTH1 0 -10
BITMAP 
70
88
80
70
08
08
88
70
ENDCHAR
STARTCHAR char54
ENCODING 84
SWIDTH 600 0
DWIDTH 6 0
BBX 5 8 0 0
VVECTOR 2 8
SWIDTH1 0 -1000
DWIDTH1 0 -10
BITMAP 
F8
20
20
20
20
20
20
20
ENDCHAR
STARTCHAR char55
ENCODING 85
SWIDTH 600 0
DWIDTH 6 0
BBX 5 8 0 0
VVECTOR 2 8
SWIDTH1 0 -1000
DWIDTH1 0 -10
BITMAP 
88
88
88
88
88
88
88
70
ENDCHAR
STARTCHAR char56
ENCODING 86
SWIDTH 600 0
DWIDTH 6 0
BBX 5 8 0 0
VVECTOR 2 8
SWIDTH1 0 -1000
DWIDTH1 0 -10
BITMAP 
88
88
50
50
50
20
20
20
ENDCHAR
STARTCHAR char57
ENCODING 87
SWIDTH 1000 0
DWIDTH 10 0
BBX 9 8 0 0
VVECTOR 4 8
SWIDTH1 0 -1000
DWIDTH1 0 -10
BITMAP 
8080
8880
4900
5500
5500
2200
2200
2200
ENDCHAR
STARTCHAR char58
ENCODING 88
SWIDTH 600 0
DWIDTH 6 0
BBX 5 8 0 0
VVECTOR 2 8
SWIDTH1 0 -1000
DWIDTH1 0 -10
BITMAP 
88
88
50
20
20
50
88
88
ENDCHAR
STARTCHAR char59
ENCODING 89
SWIDTH 600 0
DWIDTH 6 0
BBX 5 8 0 0
VVECTOR 2 8
SWIDTH1 0 -1000
DWIDTH1 0 -10
BITMAP 
88
88
50
50
20
20
20
20
ENDCHAR
STARTCHAR char5A
ENCODING 90
SWIDTH 600 0
DWIDTH 6 0
BBX 5 8 0 0
VVECTOR 2 8
SWIDTH1 0 -1000
DWIDTH1 0 -10
BITMAP 
F8
08
10
20
20
40
80
F8
ENDCHAR
STARTCHAR char5B
ENCODING 91
SWIDTH 300 0
DWIDTH 3 0
BBX 2 10 0 -2
VVECTOR 1 8
SWIDTH1 0 -1000
DWIDTH1 0 -10
BITMAP 
C0
80
80
80
80
80
80
80
80
C0
ENDCHAR
STARTCHAR char5C
ENCODING 92
SWIDTH 500 0
DWIDTH 5 0
BBX 4 8 0 0
VVECTOR 2 8
SWIDTH1 0 -1000
DWIDTH1 0 -10
BITMAP 
80
80
40
40
20
20
10
10
ENDCHAR
STARTCHAR char5D
ENCODING 93
SWIDTH 300 0
DWIDTH 3 0
BBX 2 10 0 -2
VVECTOR 1 8
SWIDTH1 0 -1000
DWIDTH1 0 -10
BITMAP 
C0
40
40
40
40
40
40
40
40
C0
ENDCHAR
STARTCHAR char5E
ENCODING 94
SWIDTH 400 0
DWIDTH 4 0
BBX 3 2 0 6
VVECTOR 1 8
SWIDTH1 0 -1000
DWIDTH1 0 -10
BITMAP 
40
A0
ENDCHAR
STARTCHAR char5F
ENCODING 95
SWIDTH 700 0
DWIDTH 7 0
BBX 7 1 0 0
VVECTOR 4 8
SWIDTH1 0 -1000
DWIDTH1 0 -10
BITMAP 
FE
ENDCHAR
STARTCHAR char60
ENCODING 96
SWIDTH 200 0
DWIDTH 2 0
BBX 1 2 0 6
VVECTOR 0 8
SWIDTH1 0 -1000
DWIDTH1 0 -10
BITMAP 
80
80
ENDCHAR
STARTCHAR char61
ENCODING 97
SWIDTH 500 0
DWIDTH 5 0
BBX 4 6 0 0
VVECTOR 2 8
SWIDTH1 0 -1000
DWIDTH1 0 -10
BITMAP 
60
90
70
90
90
70
ENDCHAR
STARTCHAR char62
ENCODING 98
SWIDTH 500 0
DWIDTH 5 0
BBX 4 8 0 0
VVECTOR 2 8
SWIDTH1 0 -1000
DWIDTH1 0 -10
BITMAP 
80
80
E0
90
90
90
90
E0
ENDCHAR
STARTCHAR char63
ENCODING 99
SWIDTH 500 0
DWIDTH 5 0
BBX 4 6 0 0
VVECTOR 2 8
SWIDTH1 0 -1000
DWIDTH1 0 -10
BITMAP 
60
90
80
80
90
60
ENDCHAR
STARTCHAR char64
ENCODING 100
SWIDTH 500 0
DWIDTH 5 0
BBX 4 8 0 0
VVECTOR 2 8
SWIDTH1 0 -1000
DWIDTH1 0 -10
BITMAP 
10
10
70
90
90
90
90
70
ENDCHAR
STARTCHAR char65
ENCODING 101
SWIDTH 500 0
DWIDTH 5 0
BBX 4 6 0 0
VVECTOR 2 8
SWIDTH1 0 -1000
DWIDTH1 0 -10
BITMAP 
60
90
F0
80
90
60
ENDCHAR
STARTCHAR char66
ENCODING 102
SWIDTH 500 0
DWIDTH 5 0
BBX 4 8 0 0
VVECTOR 2 8
SWIDTH1 0 -1000
DWIDTH1 0 -10
BITMAP 
30
40
E0
40
40
40
40
40
ENDCHAR
STARTCHAR char67
ENCODING 103
SWIDTH 500 0
DWIDTH 5 0
BBX 4 8 0 -2
VVECTOR 2 8
SWIDTH1 0 -1000
DWIDTH1 0 -10
BITMAP 
70
90
90
90
90
70
10
60
ENDCHAR
STARTCHAR char68
ENCODING 104
SWIDTH 500 0
DWIDTH 5 0
BBX 4 8 0 0
VVECTOR 2 8
SWIDTH1 0 -1000
DWIDTH1 0 -10
BITMAP 
80
80
E0
90
90
90
90
90
ENDCHAR
STARTCHAR char69
ENCODING 105
SWIDTH 300 0
DWIDTH 3 0
BBX 2 8 0 0
VVECTOR 1 8
SWIDTH1 0 -1000
DWIDTH1 0 -10
BITMAP 
40
00
C0
40
40
40
40
40
ENDCHAR
STARTCHAR char6A
ENCODING 106
SWIDTH 400 0
DWIDTH 4 0
BBX 3 10 0 -2
VVECTOR 1 8
SWIDTH1 0 -1000
DWIDTH1 0 -10
BITMAP 
20
00
60
20
20
20
20
20
20
C0
ENDCHAR
STARTCHAR char6B
ENCODING 107
SWIDTH 500 0
DWIDTH 5 0
BBX 4 8 0 0
VVECTOR 2 8
SWIDTH1 0 -1000
DWIDTH1 0 -10
BITMAP 
80
80
90
A0
C0
C0
A0
90
ENDCHAR
STARTCHAR char6C
ENCODING 108
SWIDTH 300 0
DWIDTH 3 0
BBX 2 8 0 0
VVECTOR 1 8
SWIDTH1 0 -1000
DWIDTH1 0 -10
BITMAP 
C0
40
40
40
40
40
40
40
ENDCHAR
STARTCHAR char6D
ENCODING 109
SWIDTH 800 0
DWIDTH 8 0
BBX 7 6 0 0
VVECTOR 3 8
SWIDTH1 0 -1000
DWIDTH1 0 -10
BITMAP 
EC
92
92
92
92
92
ENDCHAR
STARTCHAR char6E
ENCODING 110
SWIDTH 500 0
DWIDTH 5 0
BBX 4 6 0 0
VVECTOR 2 8
SWIDTH1 0 -1000
DWIDTH1 0 -10
BITMAP 
E0
90
90
90
90
90
ENDCHAR
STARTCHAR char6F
ENCODING 111
SWIDTH 500 0
DWIDTH 5 0
BBX 4 6 0 0
VVECTOR 2 8
SWIDTH1 0 -1000
DWIDTH1 0 -10
BITMAP 
60
90
90
90
90
60
ENDCHAR
STARTCHAR char70
ENCODING 112
SWIDTH 500 0
DWIDTH 5 0
BBX 4 8 0 -2
VVECTOR 2 8
SWIDTH1 0 -1000
DWIDTH1 0 -10
BITMAP 
E0
90
90
90
90
E0
80
80
ENDCHAR
STARTCHAR char71
ENCODING 113
SWIDTH 500 0
DWIDTH 5 0
BBX 4 8 0 -2
VVECTOR 2 8
SWIDTH1 0 -1000
DWIDTH1 0 -10
BITMAP 
70
90
90
90
90
70
10
10
ENDCHAR
STARTCHAR char72
ENCODING 114
SWIDTH 500 0
DWIDTH 5 0
BBX 4 6 0 0
VVECTOR 2 8
SWIDTH1 0 -1000
DWIDTH1 0 -10
BITMAP 
B0
C0
80
80
80
80
ENDCHAR
STARTCHAR char73
ENCODING 115
SWIDTH 500 0
DWIDTH 5 0
BBX 4 6 0 0
VVECTOR 2 8
SWIDTH1 0 -1000
DWIDTH1 0 -10
BITMAP 
60
90
60
10
90
60
ENDCHAR
STARTCHAR char74
ENCODING 116
SWIDTH 400 0
DWIDTH 4 0
BBX 3 8 0 0
VVECTOR 1 8
SWIDTH1 0 -1000
DWIDTH1 0 -10
BITMAP 
40
40
E0
40
40
40
40
20
ENDCHAR
STARTCHAR char75
ENCODING 117
SWIDTH 500 0
DWIDTH 5 0
BBX 4 6 0 0
VVECTOR 2 8
SWIDTH1 0 -1000
DWIDTH1 0 -10
BITMAP 
90
90
90
90
90
70
ENDCHAR
STARTCHAR char76
ENCODING 118
SWIDTH 600 0
DWIDTH 6 0
BBX 5 6 0 0
VVECTOR 2 8
SWIDTH1 0 -1000
DWIDTH1 0 -10
BITMAP 
88
88
50
50
20
20
ENDCHAR
STARTCHAR char77
ENCODING 119
SWIDTH 800 0
DWIDTH 8 0
BBX 7 6 0 0
VVECTOR 3 8
SWIDTH1 0 -1000
DWIDTH1 0 -10
BITMAP 
82
82
54
54
28
28
ENDCHAR
STARTCHAR char78
ENCODING 120
SWIDTH 600 0
DWIDTH 6 0
BBX 5 6 0 0
VVECTOR 2 8
SWIDTH1 0 -1000
DWIDTH1 0 -10
BITMAP 
88
50
20
20
50
88
ENDCHAR
STARTCHAR char79
ENCODING 121
SWIDTH 500 0
DWIDTH 5 0
BBX 4 8 0 -2
VVECTOR 2 8
SWIDTH1 0 -1000
DWIDTH1 0 -10
BITMAP 
90
90
90
90
90
70
10
60
ENDCHAR
STARTCHAR char7A
ENCODING 122
SWIDTH 500 0
DWIDTH 5 0
BBX 4 6 0 0
VVECTOR 2 8
SWIDTH1 0 -1000
DWIDTH1 0 -10
BITMAP 
F0
10
20
40
80
F0
ENDCHAR
STARTCHAR char7B
ENCODING 123
SWIDTH 400 0
DWIDTH 4 0
BBX 3 10 0 -2
VVECTOR 1 8
SWIDTH1 0 -1000
DWIDTH1 0 -10
BITMAP 
20
40
40
40
80
40
40
40
40
20
ENDCHAR
STARTCHAR char7C
ENCODING 124
SWIDTH 200 0
DWIDTH 2 0
BBX 1 10 0 -2
VVECTOR 0 8
SWIDTH1 0 -1000
DWIDTH1 0 -10
BITMAP 
80
80
80
80
80
80
80
80
80
80
ENDCHAR
STARTCHAR char7D
ENCODING 125
SWIDTH 400 0
DWIDTH 4 0
BBX 3 10 0 -2
VVECTOR 1 8
SWIDTH1 0 -1000
DWIDTH1 0 -10
BITMAP 
80
40
40
40
20
40
40
40
40
80
ENDCHAR
STARTCHAR char7E
ENCODING 126
SWIDTH 600 0
DWIDTH 6 0
BBX 6 2 0 6
VVECTOR 3 8
SWIDTH1 0 -1000
DWIDTH1 0 -10
BITMAP 
64
98
ENDCHAR
ENDFONT
